<svg width="20" height="24" viewBox="0 0 20 24" fill="none" xmlns="http://www.w3.org/2000/svg">
<path fill-rule="evenodd" clip-rule="evenodd" d="M4.25291 21.2519L1.49639 22.6559C1.38925 22.7093 1.26207 22.7029 1.16076 22.6392C1.05945 22.5754 0.99866 22.4636 1.00031 22.3439V2.4898C0.983778 1.6839 1.62339 1.01705 2.42927 1H16.7298C17.5357 1.01705 18.1753 1.6839 18.1588 2.4898V22.3439C18.1605 22.4636 18.0996 22.5754 17.9982 22.6392C17.897 22.7029 17.7698 22.7093 17.6627 22.6559L14.9062 21.2519C14.7963 21.1959 14.6648 21.2042 14.563 21.2738L12.3446 22.7807C12.2298 22.8589 12.0788 22.8589 11.964 22.7807L9.77063 21.2909C9.65582 21.2128 9.50481 21.2128 9.38999 21.2909L7.19663 22.7807C7.08182 22.8589 6.93081 22.8589 6.81599 22.7807L4.59611 21.28C4.49549 21.2086 4.36383 21.1976 4.25291 21.2519Z" stroke="white" stroke-width="2" stroke-linecap="round" stroke-linejoin="round"/>
<path d="M4.89852 10.75C4.25235 10.75 3.72852 11.2739 3.72852 11.92C3.72852 12.5662 4.25235 13.09 4.89852 13.09V10.75ZM14.2585 13.09C14.9047 13.09 15.4285 12.5662 15.4285 11.92C15.4285 11.2739 14.9047 10.75 14.2585 10.75V13.09ZM6.45852 13.87C5.81236 13.87 5.28852 14.3939 5.28852 15.04C5.28852 15.6862 5.81236 16.21 6.45852 16.21V13.87ZM12.6985 16.21C13.3447 16.21 13.8685 15.6862 13.8685 15.04C13.8685 14.3939 13.3447 13.87 12.6985 13.87V16.21ZM6.45852 7.63C5.81236 7.63 5.28852 8.15384 5.28852 8.8C5.28852 9.44616 5.81236 9.97 6.45852 9.97V7.63ZM12.6985 9.97C13.3447 9.97 13.8685 9.44616 13.8685 8.8C13.8685 8.15384 13.3447 7.63 12.6985 7.63V9.97ZM4.89852 13.09H14.2585V10.75H4.89852V13.09ZM6.45852 16.21H12.6985V13.87H6.45852V16.21ZM6.45852 9.97H12.6985V7.63H6.45852V9.97Z" fill="white"/>
</svg>
