<svg width="22" height="22" viewBox="0 0 22 22" fill="none" xmlns="http://www.w3.org/2000/svg">
<path fill-rule="evenodd" clip-rule="evenodd" d="M6.14245 3.07536C7.00319 1.2581 8.85385 0 11 0C13.1462 0 14.9968 1.2581 15.8575 3.07536C15.9433 3.07165 16.0296 3.06977 16.1163 3.06977C19.3657 3.06977 22 5.704 22 8.95349C22 11.1848 20.7581 13.1245 18.9302 14.1217V17.1927C18.9302 18.1121 18.9303 18.8788 18.8485 19.4874C18.7621 20.1298 18.5721 20.7098 18.106 21.1758C17.64 21.6419 17.06 21.8319 16.4176 21.9182C15.809 22.0001 15.0424 22 14.123 22H7.87703C6.95765 22 6.191 22.0001 5.58239 21.9182C4.94 21.8319 4.36002 21.6419 3.89396 21.1758C3.4279 20.7098 3.23791 20.1298 3.15154 19.4874C3.06971 18.8788 3.06974 18.1121 3.06977 17.1927V14.1217C1.24194 13.1245 0 11.1848 0 8.95349C0 5.704 2.63423 3.06977 5.88372 3.06977C5.97038 3.06977 6.05664 3.07165 6.14245 3.07536ZM5.68175 4.60926C3.37372 4.71477 1.53488 6.61939 1.53488 8.95349C1.53488 10.7356 2.60694 12.269 4.14447 12.9408C4.424 13.0629 4.60465 13.3391 4.60465 13.6441V16.3721H17.3953V13.6441C17.3953 13.3391 17.576 13.0629 17.8555 12.9408C19.3931 12.269 20.4651 10.7356 20.4651 8.95349C20.4651 6.61939 18.6263 4.71476 16.3183 4.60926C16.3538 4.85867 16.3721 5.11339 16.3721 5.37209V5.88372C16.3721 6.30756 16.0285 6.65116 15.6047 6.65116C15.1808 6.65116 14.8372 6.30756 14.8372 5.88372V5.37209C14.8372 4.93941 14.7659 4.52496 14.635 4.13893C14.1211 2.62365 12.6867 1.53488 11 1.53488C9.31327 1.53488 7.87888 2.62365 7.36502 4.13893C7.23411 4.52496 7.16279 4.93941 7.16279 5.37209V5.88372C7.16279 6.30756 6.81919 6.65116 6.39535 6.65116C5.97151 6.65116 5.62791 6.30756 5.62791 5.88372V5.37209C5.62791 5.11338 5.64624 4.85867 5.68175 4.60926ZM17.3935 17.907H4.6065C4.61083 18.4896 4.6252 18.9293 4.67274 19.2828C4.73622 19.7551 4.84593 19.9572 4.97929 20.0905C5.11263 20.2238 5.31472 20.3335 5.78691 20.3971C6.28118 20.4635 6.9438 20.4651 7.93023 20.4651H14.0698C15.0562 20.4651 15.7188 20.4635 16.2131 20.3971C16.6853 20.3335 16.8874 20.2238 17.0207 20.0905C17.1541 19.9572 17.2638 19.7551 17.3273 19.2828C17.3748 18.9293 17.3892 18.4896 17.3935 17.907Z" fill="white"/>
</svg>
