<svg width="302" height="213" viewBox="0 0 302 213" fill="none" xmlns="http://www.w3.org/2000/svg">
<path d="M290.864 199.927C290.799 199.279 290.513 198.764 290.006 198.381C289.498 197.999 288.86 197.807 288.091 197.807C287.549 197.807 287.072 197.9 286.659 198.086C286.25 198.271 285.928 198.529 285.693 198.859C285.462 199.184 285.347 199.556 285.347 199.972C285.347 200.279 285.413 200.548 285.545 200.779C285.678 201.01 285.856 201.209 286.08 201.376C286.307 201.539 286.557 201.679 286.83 201.796C287.106 201.914 287.384 202.012 287.665 202.092L288.892 202.444C289.263 202.546 289.634 202.677 290.006 202.836C290.377 202.995 290.716 203.196 291.023 203.438C291.333 203.677 291.581 203.97 291.767 204.319C291.956 204.664 292.051 205.078 292.051 205.563C292.051 206.184 291.89 206.743 291.568 207.239C291.246 207.735 290.784 208.129 290.182 208.421C289.58 208.709 288.858 208.853 288.017 208.853C287.225 208.853 286.538 208.722 285.955 208.461C285.371 208.196 284.913 207.83 284.58 207.364C284.246 206.898 284.059 206.359 284.017 205.745H285.108C285.146 206.203 285.297 206.592 285.562 206.91C285.828 207.228 286.172 207.47 286.597 207.637C287.021 207.8 287.494 207.881 288.017 207.881C288.597 207.881 289.112 207.785 289.562 207.592C290.017 207.395 290.373 207.122 290.631 206.773C290.892 206.421 291.023 206.012 291.023 205.546C291.023 205.152 290.92 204.823 290.716 204.557C290.511 204.289 290.225 204.063 289.858 203.881C289.494 203.7 289.072 203.539 288.591 203.398L287.199 202.989C286.286 202.717 285.578 202.34 285.074 201.859C284.57 201.378 284.318 200.764 284.318 200.018C284.318 199.393 284.485 198.843 284.818 198.37C285.155 197.893 285.61 197.521 286.182 197.256C286.758 196.987 287.403 196.853 288.119 196.853C288.843 196.853 289.483 196.985 290.04 197.251C290.597 197.516 291.038 197.881 291.364 198.347C291.693 198.809 291.869 199.336 291.892 199.927H290.864Z" fill="black"/>
<path d="M238.545 208.654V197.018H245.278V197.972H239.608V202.353H244.75V203.307H239.608V208.654H238.545Z" fill="black"/>
<path d="M191.841 197.972V197.018H200.278V197.972H196.591V208.654H195.528V197.972H191.841Z" fill="black"/>
<path d="M146.568 208.654L143.381 197.018H144.46L147.097 207.023H147.188L149.824 197.018H151.051L153.688 207.023H153.778L156.415 197.018H157.5L154.312 208.654H153.176L150.477 198.785H150.403L147.705 208.654H146.568Z" fill="black"/>
<path d="M100.568 199.046V197.018H110.125V199.046H106.562V208.654H104.131V199.046H100.568Z" fill="black"/>
<path d="M53.5455 197.018H54.7727L58.9943 207.154H59.0966L63.3182 197.018H64.5455V208.654H63.5455V199.262H63.4545L59.5284 208.654H58.5625L54.6364 199.262H54.5455V208.654H53.5455V197.018Z" fill="black"/>
<path d="M16.8636 199.927C16.7992 199.279 16.5133 198.764 16.0057 198.381C15.4981 197.999 14.8598 197.807 14.0909 197.807C13.5492 197.807 13.072 197.9 12.6591 198.086C12.25 198.271 11.928 198.529 11.6932 198.859C11.4621 199.184 11.3466 199.556 11.3466 199.972C11.3466 200.279 11.4129 200.548 11.5455 200.779C11.678 201.01 11.8561 201.209 12.0795 201.376C12.3068 201.539 12.5568 201.679 12.8295 201.796C13.1061 201.914 13.3845 202.012 13.6648 202.092L14.892 202.444C15.2633 202.546 15.6345 202.677 16.0057 202.836C16.3769 202.995 16.7159 203.196 17.0227 203.438C17.3333 203.677 17.5814 203.97 17.767 204.319C17.9564 204.664 18.0511 205.078 18.0511 205.563C18.0511 206.184 17.8902 206.743 17.5682 207.239C17.2462 207.735 16.7841 208.129 16.1818 208.421C15.5795 208.709 14.858 208.853 14.017 208.853C13.2254 208.853 12.5379 208.722 11.9545 208.461C11.3712 208.196 10.9129 207.83 10.5795 207.364C10.2462 206.898 10.0587 206.359 10.017 205.745H11.108C11.1458 206.203 11.2973 206.592 11.5625 206.91C11.8277 207.228 12.1723 207.47 12.5966 207.637C13.0208 207.8 13.4943 207.881 14.017 207.881C14.5966 207.881 15.1117 207.785 15.5625 207.592C16.017 207.395 16.3731 207.122 16.6307 206.773C16.892 206.421 17.0227 206.012 17.0227 205.546C17.0227 205.152 16.9205 204.823 16.7159 204.557C16.5114 204.289 16.2254 204.063 15.858 203.881C15.4943 203.7 15.072 203.539 14.5909 203.398L13.1989 202.989C12.286 202.717 11.5777 202.34 11.0739 201.859C10.5701 201.378 10.3182 200.764 10.3182 200.018C10.3182 199.393 10.4848 198.843 10.8182 198.37C11.1553 197.893 11.6098 197.521 12.1818 197.256C12.7576 196.987 13.4034 196.853 14.1193 196.853C14.8428 196.853 15.483 196.985 16.0398 197.251C16.5966 197.516 17.0379 197.881 17.3636 198.347C17.6932 198.809 17.8693 199.336 17.892 199.927H16.8636Z" fill="black"/>
<rect x="274" width="28" height="187" rx="14" fill="#E8E8E8"/>
<rect x="228" width="29" height="187" rx="14.5" fill="#E8E8E8"/>
<rect x="182" width="29" height="187" rx="14.5" fill="#E8E8E8"/>
<rect x="136" width="29" height="187" rx="14.5" fill="#E8E8E8"/>
<rect x="90" width="29" height="187" rx="14.5" fill="#E8E8E8"/>
<path d="M45 14.5C45 6.49187 51.4919 0 59.5 0C67.5081 0 74 6.49187 74 14.5V172.5C74 180.508 67.5081 187 59.5 187C51.4919 187 45 180.508 45 172.5V14.5Z" fill="#B1B1B1"/>
<path d="M0 14.5C0 6.49187 6.49187 0 14.5 0C22.5081 0 29 6.49187 29 14.5V172.5C29 180.508 22.5081 187 14.5 187C6.49187 187 0 180.508 0 172.5V14.5Z" fill="#B1B1B1"/>
</svg>
