<svg width="28" height="28" viewBox="0 0 28 28" fill="none" xmlns="http://www.w3.org/2000/svg">
<path d="M1.76469 9.71178V9.6924C1.76467 7.77777 2.30153 5.90602 3.30754 4.3133C4.31355 2.72058 5.74364 1.47825 7.41739 0.743046C9.09114 0.00784284 10.9335 -0.187293 12.7122 0.182256C14.4908 0.551806 16.126 1.46948 17.4114 2.81951C18.4227 2.29228 19.5524 2.0706 20.6755 2.17898C21.7987 2.28735 22.8716 2.72156 23.7757 3.43362C24.6799 4.14569 25.3801 5.10789 25.7989 6.21393C26.2178 7.31996 26.3391 8.52677 26.1493 9.70102C26.4283 9.72837 26.699 9.81617 26.9445 9.95895C27.1899 10.1017 27.4049 10.2964 27.576 10.5309C27.747 10.7653 27.8705 11.0345 27.9387 11.3216C28.0069 11.6086 28.0183 11.9075 27.9723 12.1995C27.0506 18.0557 24.7708 21.7625 21.1369 23.3219V24.7692C21.1369 25.6261 20.8147 26.4479 20.2411 27.0537C19.6674 27.6596 18.8894 28 18.0782 28H9.92143C9.11019 28 8.33218 27.6596 7.75855 27.0537C7.18492 26.4479 6.86265 25.6261 6.86265 24.7692V23.3219C3.22883 21.7625 0.949018 18.0557 0.0273061 12.1995C-0.0171773 11.9153 -0.0072306 11.6245 0.0565573 11.3444C0.120345 11.0643 0.236678 10.8006 0.398671 10.5689C0.560665 10.3371 0.765026 10.1421 0.999662 9.99521C1.2343 9.84836 1.49444 9.75272 1.76469 9.71394V9.71178ZM3.80388 9.6924H5.84306C5.84306 8.26432 6.38017 6.89473 7.33622 5.88492C8.29227 4.87512 9.58896 4.30781 10.941 4.30781C12.2931 4.30781 13.5898 4.87512 14.5458 5.88492C15.5019 6.89473 16.039 8.26432 16.039 9.6924H18.0782C18.0782 7.69309 17.3262 5.77566 15.9877 4.36193C14.6493 2.9482 12.8339 2.15398 10.941 2.15398C9.04813 2.15398 7.23277 2.9482 5.8943 4.36193C4.55582 5.77566 3.80388 7.69309 3.80388 9.6924ZM7.88225 9.6924H13.9998C13.9998 8.83555 13.6775 8.0138 13.1039 7.40791C12.5303 6.80203 11.7523 6.46165 10.941 6.46165C10.1298 6.46165 9.35177 6.80203 8.77814 7.40791C8.20451 8.0138 7.88225 8.83555 7.88225 9.6924ZM21.8833 9.6924H24.0673C24.2212 9.05588 24.2356 8.39065 24.1092 7.74738C23.9829 7.10412 23.7192 6.4998 23.3382 5.98048C22.9573 5.46116 22.4691 5.04054 21.911 4.75067C21.3528 4.4608 20.7393 4.30934 20.1174 4.30781C19.628 4.30781 19.163 4.39827 18.7307 4.56412C19.0916 5.17581 19.3894 5.83488 19.6178 6.52626C20.0061 6.42452 20.4143 6.44547 20.7915 6.58651C21.1687 6.72756 21.4984 6.9825 21.7397 7.31969C21.981 7.65688 22.1232 8.06148 22.1487 8.48328C22.1743 8.90508 22.082 9.32551 21.8833 9.6924ZM19.0978 23.6923H8.90184V24.7692C8.90184 25.0549 9.00926 25.3288 9.20047 25.5307C9.39168 25.7327 9.65102 25.8462 9.92143 25.8462H18.0782C18.3486 25.8462 18.6079 25.7327 18.7991 25.5307C18.9903 25.3288 19.0978 25.0549 19.0978 24.7692V23.6923ZM8.18404 21.5385H19.8156C23.0497 20.44 25.097 17.3342 25.9617 11.8462H2.03794C2.90256 17.3342 4.9499 20.44 8.18404 21.5385Z" fill="#39AC6D"/>
</svg>
