<svg width="32" height="22" viewBox="0 0 32 22" fill="none" xmlns="http://www.w3.org/2000/svg">
<path d="M29.5 3.19231C26.5 1.80769 22.2308 1 17.5 1C8.38461 1 1 4.11538 1 7.92308C1 10.4615 2.61538 13.1154 6.53846 14.2692C8.96154 14.9615 11.6154 14.8462 13.9231 14.0385C16.4615 13.2308 18.6538 11.7308 20.7308 10.1154C22.3462 8.84615 24.4231 8.03846 26.6154 8.03846H28.1154C31.1154 7.92308 32.0385 4.34615 29.5 3.19231Z" stroke="#E2AE00" stroke-width="2" stroke-miterlimit="10" stroke-linecap="round" stroke-linejoin="round"/>
<path d="M10.808 10.2307C13.0384 10.2307 14.8465 9.19755 14.8465 7.92305C14.8465 6.64855 13.0384 5.61536 10.808 5.61536C8.57761 5.61536 6.76953 6.64855 6.76953 7.92305C6.76953 9.19755 8.57761 10.2307 10.808 10.2307Z" stroke="#E2AE00" stroke-width="2" stroke-miterlimit="10" stroke-linecap="round" stroke-linejoin="round"/>
<path d="M31 5.61536V11.3846C30.8846 12.5384 29.8462 13.6923 28.2308 13.6923H26.7308C24.5385 13.6923 22.3462 14.5 20.8462 15.7692C18.7692 17.5 16.5769 18.8846 14.0385 19.6923C11.6154 20.5 9.07692 20.6154 6.65385 19.923C2.61538 18.8846 1 16.2307 1 13.6923V7.92305" stroke="#E2AE00" stroke-width="2" stroke-miterlimit="10" stroke-linecap="round" stroke-linejoin="round"/>
</svg>
