<svg width="32" height="32" viewBox="0 0 32 32" fill="none" xmlns="http://www.w3.org/2000/svg">
<path d="M18.85 6.41003C19 6.62003 19.23 6.74003 19.47 6.74003C19.61 6.74003 19.76 6.70003 19.89 6.61003C20.23 6.38003 20.32 5.91003 20.09 5.57003L19.01 3.98003C18.78 3.64003 18.31 3.55003 17.97 3.78003C17.63 4.01003 17.54 4.48003 17.77 4.82003L18.85 6.41003Z" fill="white"/>
<path d="M7.17021 11.75C7.26021 11.78 7.35021 11.8 7.44021 11.8C7.74021 11.8 8.03021 11.62 8.14021 11.32L8.87021 9.40998C9.02021 9.01998 8.83021 8.58998 8.44021 8.43998C8.06021 8.28998 7.62021 8.47998 7.47021 8.86998L6.74021 10.78C6.59021 11.17 6.78021 11.6 7.17021 11.75Z" fill="white"/>
<path d="M24.6802 18.13C24.2702 18.09 23.9002 18.38 23.8502 18.79L23.6502 20.6C23.6102 21.01 23.9002 21.38 24.3202 21.43C24.3502 21.43 24.3702 21.43 24.4002 21.43C24.7802 21.43 25.1002 21.15 25.1502 20.76L25.3502 18.95C25.3902 18.54 25.1002 18.17 24.6802 18.12V18.13Z" fill="white"/>
<path d="M12.3502 24.31L10.6902 24.7C10.2902 24.79 10.0402 25.2 10.1302 25.6C10.2102 25.95 10.5202 26.18 10.8602 26.18C10.9202 26.18 10.9802 26.18 11.0302 26.16L12.6902 25.77C13.0902 25.68 13.3402 25.27 13.2502 24.87C13.1502 24.47 12.7402 24.22 12.3502 24.31Z" fill="white"/>
<path d="M30.7302 16.27C30.7302 16.18 30.7402 16.09 30.7402 16C30.7502 7.87 24.1302 1.25 16.0002 1.25C7.87021 1.25 1.72021 7.43 1.29021 15.19C1.25021 15.28 1.22021 15.38 1.22021 15.49C1.22021 15.57 1.24021 15.65 1.26021 15.73C1.26021 15.82 1.25021 15.91 1.25021 16C1.25021 24.13 7.87021 30.75 16.0002 30.75C24.1302 30.75 30.2802 24.57 30.7102 16.81C30.7502 16.72 30.7802 16.62 30.7802 16.51C30.7802 16.43 30.7602 16.35 30.7402 16.27H30.7302ZM16.0002 2.75C22.9402 2.75 28.6402 8.11 29.1902 14.91C29.0102 14.82 28.8202 14.75 28.5702 14.75C27.8302 14.75 27.4502 15.28 27.2402 15.56C27.2102 15.6 27.1702 15.66 27.1402 15.7C27.1102 15.66 27.0702 15.6 27.0402 15.56C26.8402 15.28 26.4602 14.75 25.7202 14.75C24.9802 14.75 24.6002 15.28 24.4002 15.56C24.3702 15.6 24.3302 15.66 24.3002 15.7C24.2702 15.66 24.2302 15.6 24.2002 15.56C24.0702 15.38 23.8602 15.11 23.5402 14.93C23.0202 11.23 19.8502 8.38 16.0102 8.38C12.1702 8.38 8.97021 11.26 8.47021 14.98C8.27021 14.85 8.03021 14.74 7.71021 14.74C6.97021 14.74 6.59021 15.27 6.38021 15.55C6.35021 15.59 6.31022 15.65 6.28022 15.69C6.25022 15.65 6.21021 15.59 6.18021 15.55C5.98021 15.27 5.60021 14.74 4.86021 14.74C4.12021 14.74 3.74021 15.27 3.54021 15.55C3.51021 15.59 3.47021 15.65 3.44021 15.69C3.41021 15.65 3.37021 15.59 3.34021 15.55C3.23021 15.4 3.06021 15.17 2.82021 15C3.31021 8.17 9.03021 2.75 16.0002 2.75ZM22.1202 16C22.1202 19.37 19.3802 22.12 16.0002 22.12C12.8102 22.12 10.1802 19.66 9.91021 16.53C9.91021 16.53 9.91021 16.53 9.91021 16.52C9.91021 16.52 9.91021 16.5 9.91021 16.49C9.90021 16.33 9.89021 16.17 9.89021 16.01C9.89021 12.64 12.6302 9.9 16.0002 9.9C19.1902 9.9 21.8202 12.36 22.0902 15.49C22.0902 15.49 22.0902 15.5 22.0902 15.51C22.0902 15.52 22.0902 15.53 22.0902 15.54C22.1002 15.7 22.1102 15.86 22.1102 16.02L22.1202 16ZM16.0002 29.25C9.06021 29.25 3.36021 23.89 2.81021 17.09C2.98021 17.18 3.18021 17.25 3.43021 17.25C4.17021 17.25 4.55021 16.72 4.75021 16.43C4.78021 16.39 4.82021 16.34 4.85021 16.29C4.88021 16.33 4.92021 16.39 4.95021 16.43C5.15021 16.71 5.53022 17.24 6.27022 17.24C7.01022 17.24 7.39021 16.71 7.59021 16.43C7.62021 16.39 7.66022 16.33 7.69022 16.29C7.72022 16.33 7.76021 16.39 7.79021 16.43C7.92021 16.61 8.13021 16.88 8.45021 17.06C8.97021 20.76 12.1402 23.61 15.9802 23.61C19.8202 23.61 23.0202 20.73 23.5202 17.01C23.7202 17.14 23.9602 17.25 24.2702 17.25C25.0102 17.25 25.3902 16.72 25.5902 16.43C25.6202 16.39 25.6602 16.34 25.6902 16.29C25.7202 16.33 25.7602 16.39 25.7902 16.43C25.9902 16.71 26.3702 17.24 27.1102 17.24C27.8502 17.24 28.2302 16.71 28.4402 16.43C28.4702 16.39 28.5102 16.33 28.5402 16.29C28.5702 16.33 28.6102 16.39 28.6402 16.43C28.7502 16.58 28.9202 16.81 29.1602 16.98C28.6502 23.83 22.9302 29.24 15.9602 29.24L16.0002 29.25Z" fill="white"/>
</svg>
